# xmcd
#
# Track frame offsets:
# 150
# 10176
# 24275
# 36406
# 47897
# 62319
# 73549
# 84688
# 106320
# 123850
# 139052
# 154213
#
# Disc length: 2350 seconds
#
#
# Revision: 0
# Processed by: cddbd v1.5.1PL2 Copyright (c) Steve Scherf et al.
# Submitted via: FreeRIP 2.943 
#
DISCID=97092c0c
DTITLE=Prairie Rose Wranglers - Were You There
DYEAR=2002
DGENRE=Western
TTITLE0=Song of the Trail
TTITLE1=I Am A Pilgrim
TTITLE2=Land Beyond the Sun
TTITLE3=There Is Power In The Blood
TTITLE4=Peace In The Valley
TTITLE5=God Leads Us Along
TTITLE6=When The Roll Is Called Up Yonder/Victory In Jesus
TTITLE7=Cowboy's Dream
TTITLE8=Were You There
TTITLE9=Rock Of Ages
TTITLE10=The Bar None Ranch
TTITLE11=How Great Thou Art
EXTD=
EXTT0=
EXTT1=
EXTT2=
EXTT3=
EXTT4=
EXTT5=
EXTT6=
EXTT7=
EXTT8=
EXTT9=
EXTT10=
EXTT11=
PLAYORDER=
